<svg width="49" height="50" viewBox="0 0 49 50" fill="none" xmlns="http://www.w3.org/2000/svg">
<path d="M40.5828 24.7966C40.5828 33.7732 33.3059 41.0501 24.3293 41.0501C15.3528 41.0501 8.07586 33.7732 8.07586 24.7966C8.07586 15.8201 15.3528 8.54314 24.3293 8.54314C33.3059 8.54314 40.5828 15.8201 40.5828 24.7966Z" stroke="#1E1E1E" stroke-width="0.980813" stroke-linecap="round"/>
<path d="M40.5828 24.7966C40.5828 33.7732 33.3059 41.0501 24.3293 41.0501C15.3528 41.0501 8.07586 33.7732 8.07586 24.7966C8.07586 15.8201 15.3528 8.54314 24.3293 8.54314C33.3059 8.54314 40.5828 15.8201 40.5828 24.7966Z" fill="#FFDA61" stroke="#1E1E1E" stroke-width="0.980813" stroke-linecap="round"/>
<path d="M17.5575 27.0617C21.4396 27.0617 24.5866 23.9251 24.5866 20.0559H10.5283C10.5283 23.9251 13.6754 27.0617 17.5575 27.0617Z" fill="#1E1E1E"/>
<path d="M31.1014 27.0617C34.9835 27.0617 38.1306 23.9251 38.1306 20.0559H24.0723C24.0723 23.9251 27.2193 27.0617 31.1014 27.0617Z" fill="#1E1E1E"/>
<path d="M18.4678 33.0398C19.0216 34.1607 20.9249 36.4026 24.1075 36.4026C27.2901 36.4026 29.1466 34.1607 29.6771 33.0398" stroke="#1E1E1E" stroke-width="1.49457" stroke-linecap="round"/>
<path d="M18.4209 33.0867H29.5835" stroke="#1E1E1E" stroke-width="1.49457"/>
<path d="M24.1426 1V6.02083" stroke="#FFDA61" stroke-width="1.49457" stroke-linecap="round"/>
<path d="M17.5806 2.12109L19.5889 6.04435" stroke="#FFDA61" stroke-width="1.49457" stroke-linecap="round"/>
<path d="M23.7456 48.686V44.0622" stroke="#FFDA61" stroke-width="1.49457" stroke-linecap="round"/>
<path d="M27.9961 6.04436L29.911 1.65405" stroke="#FFDA61" stroke-width="1.49457" stroke-linecap="round"/>
<path d="M32.8066 7.72551L34.7216 3.33521" stroke="#FFDA61" stroke-width="1.49457" stroke-linecap="round"/>
<path d="M32.106 42.5677L33.7874 46.0706" stroke="#FFDA61" stroke-width="1.49457" stroke-linecap="round"/>
<path d="M14.2173 7.77219L11.5084 4.26929" stroke="#FFDA61" stroke-width="1.49457" stroke-linecap="round"/>
<path d="M16.7861 43.4085L14.0772 47.0515" stroke="#FFDA61" stroke-width="1.49457" stroke-linecap="round"/>
<path d="M20.2427 43.4086L19.6355 48.0325" stroke="#FFDA61" stroke-width="1.49457" stroke-linecap="round"/>
<path d="M28.9764 43.5488L30.4009 48.0325" stroke="#FFDA61" stroke-width="1.49457" stroke-linecap="round"/>
<path d="M36.2163 10.7848L40.0228 7.25854" stroke="#FFDA61" stroke-width="1.49457" stroke-linecap="round"/>
<path d="M35.562 40.3726L39.3919 43.5486" stroke="#FFDA61" stroke-width="1.49457" stroke-linecap="round"/>
<path d="M10.9951 10.8081L7.58562 7.72559" stroke="#FFDA61" stroke-width="1.49457" stroke-linecap="round"/>
<path d="M12.3491 39.6723L9.64021 43.4087" stroke="#FFDA61" stroke-width="1.49457" stroke-linecap="round"/>
<path d="M40.0459 14.8483L43.8524 11.322" stroke="#FFDA61" stroke-width="1.49457" stroke-linecap="round"/>
<path d="M40.0459 36.7295L43.8757 39.9055" stroke="#FFDA61" stroke-width="1.49457" stroke-linecap="round"/>
<path d="M8.23926 14.8715L4.64294 12.0225" stroke="#FFDA61" stroke-width="1.49457" stroke-linecap="round"/>
<path d="M8.93994 37.8504L5.53045 41.0264" stroke="#FFDA61" stroke-width="1.49457" stroke-linecap="round"/>
<path d="M42.334 19.4486L46.5842 17.0667" stroke="#FFDA61" stroke-width="1.49457" stroke-linecap="round"/>
<path d="M41.9609 32.573L46.5848 34.7214" stroke="#FFDA61" stroke-width="1.49457" stroke-linecap="round"/>
<path d="M6.1377 19.4487L1.7941 17.7673" stroke="#FFDA61" stroke-width="1.49457" stroke-linecap="round"/>
<path d="M6.88525 32.5261L3.56917 35.0015" stroke="#FFDA61" stroke-width="1.49457" stroke-linecap="round"/>
<path d="M43.0347 24.0723L47.6585 24.0256" stroke="#FFDA61" stroke-width="1.49457" stroke-linecap="round"/>
<path d="M43.0347 28.4159L47.6585 28.4626" stroke="#FFDA61" stroke-width="1.49457" stroke-linecap="round"/>
<path d="M5.48389 24.0723L1.00017 24.0256" stroke="#FFDA61" stroke-width="1.49457" stroke-linecap="round"/>
<path d="M14.0771 20.8497L8.93956 20.803" stroke="#1E1E1E" stroke-width="1.49457" stroke-linecap="round"/>
<path d="M39.3916 20.8031L34.254 20.7563" stroke="#1E1E1E" stroke-width="1.49457" stroke-linecap="round"/>
<path d="M6.1377 27.6688L1.00011 30.2375" stroke="#FFDA61" stroke-width="1.49457" stroke-linecap="round"/>
<path d="M11.9205 34.1416C11.9205 33.6066 11.9205 33.0715 11.9205 32.5365C11.9205 32.447 11.8748 31.3176 11.8628 31.3248C11.6943 31.4258 11.6012 32.1236 11.5454 32.2952C11.465 32.5426 11.4005 32.8971 11.2123 32.5155C11.0665 32.2197 11.0496 31.897 10.9553 31.5871C10.918 31.4646 10.9361 32.16 10.9396 32.2322C10.9538 32.5305 10.9861 33.4058 11.0681 33.1187C11.113 32.9616 11.0284 32.7723 11.0733 32.6152C11.1172 32.4616 11.1874 32.9137 11.2491 33.061C11.3563 33.3175 11.4164 33.3333 11.2307 33.0689C10.6823 32.2879 10.3626 31.5541 10.3626 30.6009C10.3626 30.2707 10.3228 29.9464 10.3154 29.62C10.313 29.5169 10.3154 29.4136 10.3154 29.3105C10.3154 29.1112 10.3105 29.7093 10.318 29.9085C10.3256 30.1095 10.3474 30.3224 10.3993 30.517C10.4041 30.5352 10.4292 30.6991 10.3835 30.6665C10.1468 30.4974 9.85251 30.1215 9.75409 29.8508C9.68409 29.6583 9.65442 29.5333 9.65442 29.3262C9.65442 29.2222 9.65442 28.778 9.65442 29.1217C9.65442 29.3002 9.97205 31.2403 10.394 31.0153C10.8224 30.7868 11.0637 30.2547 11.4484 29.9662C11.4705 29.9496 11.3953 30.4374 11.3907 30.4645C11.3327 30.803 11.294 31.1435 11.3068 31.4874C11.3106 31.5912 11.3641 31.4899 11.3513 31.4323C11.3415 31.388 11.1657 31.3721 11.1284 31.3562C10.4763 31.0788 10.1812 30.2696 10.0898 29.62C10.0475 29.3195 10.1028 29.1293 9.90096 28.8751C9.77672 28.7187 9.59787 28.8001 9.4446 28.7125C9.30798 28.6344 9.27674 28.2665 9.27674 28.125C9.27674 28.047 9.21452 28.0485 9.24003 28.1093C9.39897 28.4883 9.86581 28.8469 10.1632 29.1164C10.3756 29.3089 10.4598 29.3691 10.6904 29.1846C10.779 29.1137 10.9933 28.8895 11.1179 28.9013C11.2266 28.9117 11.5125 29.8899 11.5454 30.079C11.637 30.6056 11.6803 31.1403 11.7789 31.6657C11.8719 32.162 12.1102 31.9552 12.3218 31.6316C12.3564 31.5787 12.6988 31.0112 12.7126 31.0677C12.7971 31.4155 12.8307 31.7722 12.9329 32.1195C13.0297 32.4489 13.1244 32.5566 13.2896 32.185C13.4122 31.9092 13.5525 31.4184 13.5702 32.0198C13.5803 32.3647 13.5728 32.7107 13.5728 33.0558C13.5728 33.086 13.5684 33.2047 13.5728 33.0925C13.5818 32.8627 13.62 32.6336 13.6463 32.4053C13.6574 32.3082 13.6014 32.108 13.6987 32.1168C13.7859 32.1248 13.9599 32.5392 13.9977 32.5994C14.1452 32.8347 14.4157 33.3203 14.7688 33.1764C14.8727 33.1341 15.2004 32.6192 15.2435 32.6335C15.3054 32.6542 15.2576 33.3848 15.4428 33.103C15.6007 32.8627 15.677 32.5764 15.8284 32.3319C15.862 32.2776 15.8759 32.2649 15.8887 32.3372C15.9322 32.5838 15.9554 32.8331 16.0277 33.0742C16.151 33.4851 16.1848 33.0659 16.2165 32.8932C16.2289 32.826 16.2638 32.4048 16.2638 32.6781" stroke="#1E1E1E" stroke-width="1.07422" stroke-linecap="round" stroke-dasharray="2.15 2.15"/>
<path d="M13.5253 32.3005C13.2425 32.269 13.1476 31.485 13.1476 31.2697C13.1476 30.7287 13.1542 31.6974 13.1476 31.8284C13.1425 31.9311 12.6385 31.1504 12.5575 31.031C12.429 30.8417 12.389 30.9577 12.3556 30.6691C12.319 30.3533 12.3547 30.1589 12.1274 30.5065C11.8549 30.9232 11.6746 30.7068 11.4114 30.4436C11.2943 30.3265 11.2108 30.5324 11.1045 30.4881C10.8999 30.4029 10.6731 30.112 10.6088 29.9033C10.5921 29.8488 10.5983 29.6759 10.5983 29.7328C10.5983 29.8088 10.6498 29.8646 10.6823 29.9295C10.7827 30.1303 10.7416 30.4105 10.74 30.6271C10.7373 30.9905 10.756 31.384 10.5747 31.7103C10.5388 31.775 10.4887 31.9084 10.5144 31.9805C10.633 32.3125 10.9212 32.6667 11.1176 32.9614C11.3837 33.3605 11.6677 33.6728 12.0461 33.9738C12.2376 34.1261 12.4582 34.3621 12.6939 34.4406C12.7296 34.4525 12.7483 33.9361 12.749 33.9266C12.7814 33.5011 12.7894 33.0742 12.8198 32.6493C12.8394 32.3745 12.7739 33.3055 12.6651 33.1765C12.6207 33.1238 12.3372 32.4626 12.3529 32.6991C12.3709 32.9689 12.4787 33.2384 12.5654 33.4912C12.6773 33.8177 12.7524 34.208 12.9483 34.4983C13.0273 34.6153 13.1125 34.7556 13.2185 34.8498C13.286 34.9098 13.4655 35.2107 13.4204 35.3009C13.351 35.4396 12.9598 35.3694 12.8618 35.3166C12.6958 35.2273 12.5149 35.0878 12.3818 34.9547C12.1874 34.7602 12.6629 35.1274 12.6965 35.154C13.6903 35.9398 14.6665 36.8445 15.773 37.4725C16.1165 37.6675 16.4772 37.9307 16.8326 38.0863C17.1045 38.2052 17.5181 38.4377 17.8214 38.4377" stroke="#1E1E1E" stroke-width="1.07422" stroke-linecap="round" stroke-dasharray="2.15 2.15"/>
<path d="M13.1479 35.3689C13.4696 35.5043 13.7637 35.6063 14.0607 35.8043C14.5087 36.103 14.9477 36.4145 15.393 36.717C15.5267 36.8078 15.6324 36.9329 15.7681 37.0186C15.7869 37.0305 16.0623 37.196 15.8992 37.1576C15.2455 37.0038 14.6029 36.4933 14.1367 36.0272C13.9643 35.8547 13.7474 35.7821 13.5466 35.6522C13.3448 35.5216 13.4239 35.5977 13.5361 35.7099C13.7753 35.949 13.9857 36.2067 14.2233 36.4442C14.5406 36.7615 14.9314 36.9696 15.317 37.1865C15.8039 37.4604 16.1424 38.0177 16.6887 38.1543" stroke="#1E1E1E" stroke-width="1.07422" stroke-linecap="round" stroke-dasharray="2.15 2.15"/>
<path d="M16.6893 37.6822C16.6893 36.5606 16.6767 35.4383 16.7129 34.3172C16.7198 34.103 16.7311 33.8889 16.7365 33.6746C16.7373 33.6422 16.7342 33.7394 16.7312 33.7717C16.6882 34.2338 16.61 34.686 16.5948 35.1512C16.5769 35.7022 16.5777 36.2562 16.5371 36.8062C16.5123 37.1426 16.5065 37.1871 16.4112 36.8062C16.1497 35.7598 15.8767 34.7136 15.6506 33.6589C15.6378 33.5988 15.5346 33.0157 15.5195 33.1291C15.4389 33.7338 15.509 34.3841 15.509 34.9939C15.509 35.2514 15.4752 33.9657 15.4592 34.2228C15.4365 34.5857 15.4166 34.9473 15.4146 35.3112C15.4144 35.3514 15.4488 36.0532 15.3569 35.7571C15.2246 35.3309 15.0964 34.9034 14.9635 34.4772C14.8773 34.2009 14.8417 33.8842 14.7169 33.6222C14.6534 33.4887 14.7065 33.9176 14.7065 34.0654C14.7065 34.4238 14.7065 34.7823 14.7065 35.1407C14.7065 35.2114 14.5039 34.6875 14.4704 34.6136C14.3508 34.3491 14.2619 33.8647 14.0534 33.6563C13.9946 33.5974 13.9983 34.0255 13.9983 34.0523C13.9983 34.2545 14.0426 34.5157 13.9616 34.708C13.9447 34.7481 13.9512 34.5061 13.9511 34.4929C13.9484 34.238 13.9079 33.9869 13.9039 33.7323C13.8982 33.366 13.9039 34.4649 13.9039 34.8312C13.9039 34.8467 13.9285 35.0851 13.8934 34.9624C13.7897 34.5994 13.6846 34.2604 13.6705 33.8792C13.6522 33.3869 13.6678 33.8022 13.6678 34.0261C13.6678 34.4597 13.6678 33.681 13.6678 33.5749" stroke="#1E1E1E" stroke-width="1.07422" stroke-linecap="round" stroke-dasharray="2.15 2.15"/>
<path d="M15.5084 34.8025C15.5504 35.0541 15.5626 34.2952 15.5924 34.0419C15.6496 33.5554 15.6143 35.0214 15.6396 35.5106C15.6502 35.7164 15.6459 35.9385 15.7182 36.1348C15.7674 36.2683 15.8206 35.9017 15.8232 35.8935C15.983 35.3748 16.136 34.8537 16.2979 34.3356C16.4241 33.9318 16.4054 34.0793 16.4054 34.3671C16.4054 34.7137 16.4147 35.7499 16.4552 35.4057C16.5078 34.9593 16.5569 34.5132 16.6205 34.0681C16.6842 33.6219 16.8293 33.1818 16.8775 32.7357C16.8969 32.5563 16.8387 33.096 16.7936 33.2708C16.7098 33.5952 16.9247 31.9391 16.9247 32.2741C16.9247 32.5268 16.8804 33.2799 16.93 33.0321C16.9539 32.9127 17.2422 31.8498 17.326 31.8833C17.4074 31.9159 17.3424 32.4373 17.3522 32.5259C17.4012 32.9672 18.1371 31.0174 18.1522 31.4611C18.1608 31.7145 18.0972 32.4692 18.1522 32.2217C18.2051 31.9833 18.3007 31.7552 18.3777 31.524C18.4415 31.3327 18.4034 31.2993 18.3908 31.4821C18.3843 31.5771 18.2741 32.1551 18.4223 31.9489C18.5684 31.7456 18.6654 31.5184 18.7816 31.2985C18.8357 31.1961 18.8125 31.5334 18.8131 31.5712C18.8172 31.8565 18.9181 32.0259 19.1541 31.7601C19.3097 31.5846 19.4198 31.3659 19.5789 31.1962C19.6242 31.1479 19.6157 31.4514 19.6157 31.4821C19.6157 31.5348 19.6629 32.08 19.6629 31.8545C19.6629 31.6902 19.6629 30.7433 19.6629 31.364C19.6629 31.6046 19.7656 31.8342 19.4871 31.8073C19.1195 31.7717 18.9621 32.0316 18.6715 32.1692C18.6091 32.1988 18.6257 31.5018 18.6243 31.4139C18.6194 31.1085 18.5464 31.572 18.501 31.5922C18.0997 31.7706 17.5717 32.0206 17.124 32.004C16.9441 31.9973 16.8205 31.8938 16.6624 31.8283C16.4962 31.7593 16.2982 31.9344 16.172 32.0171C15.9495 32.1629 15.268 32.6942 15.0599 32.3109C15.0308 32.2572 14.9624 31.9538 14.8947 31.9437C14.8181 31.9322 14.7107 32.0865 14.6377 32.1115C14.3375 32.2142 14.2869 31.481 14.1866 31.3404C14.1376 31.2718 14.0231 31.4843 13.9977 31.5083C13.8464 31.6512 13.7332 31.153 13.7118 31.0834C13.6866 31.0013 13.5502 30.1615 13.405 30.3726C13.2255 30.6337 13.1897 30.4738 13.1479 30.2231" stroke="#1E1E1E" stroke-width="1.07422" stroke-linecap="round" stroke-dasharray="2.15 2.15"/>
<path d="M9.1822 27.4848C9.09395 27.3083 9.06185 27.1148 8.98287 26.9393C8.94333 26.8514 8.92914 26.8183 8.95664 26.9498C9.02537 27.2781 9.26372 27.6024 9.47595 27.852C9.54198 27.9296 9.74985 28.2291 9.89034 28.1589C10.0274 28.0903 10.1194 27.866 10.1684 27.7313C10.2794 27.4259 10.2792 28.0398 10.2942 28.1064C10.3439 28.3264 10.4818 28.1055 10.5723 28.2218C10.6998 28.3857 10.7047 28.5035 10.9552 28.5208C11.3446 28.5476 11.5465 28.9765 11.8731 29.1843" stroke="#1E1E1E" stroke-width="1.07422" stroke-linecap="round" stroke-dasharray="2.15 2.15"/>
<path d="M12.1094 29.5149C12.4979 29.5149 12.6735 29.8376 12.9618 30.0394C13.2669 30.253 13.3708 30.6552 13.6568 30.905C14.2722 31.4425 14.9813 31.5901 15.7445 31.781" stroke="#1E1E1E" stroke-width="1.07422" stroke-linecap="round" stroke-dasharray="2.15 2.15"/>
<path d="M19.7106 32.2059C20.457 32.2059 21.2039 32.2531 21.9478 32.2531C22.5423 32.2531 20.7614 32.3388 20.167 32.3475C20.107 32.3484 19.249 32.3658 19.249 32.3239C19.249 32.2764 23.0041 32.3003 23.3563 32.3003C24.2995 32.3003 25.3011 32.3995 26.2334 32.2321C26.8083 32.129 27.4117 32.164 27.9933 32.1587C28.4158 32.1548 29.1808 31.9415 29.5774 32.2059" stroke="#1E1E1E" stroke-width="1.07422" stroke-linecap="round" stroke-dasharray="2.15 2.15"/>
<path d="M19.4268 30.9314C19.4433 31.0637 20.4133 30.9249 20.607 31.0494C20.7406 31.1353 20.8519 31.2195 21.0109 31.2619C21.0789 31.28 21.4695 31.372 21.2732 31.4612C20.9394 31.6129 20.5313 31.5957 20.1821 31.5084C20.1534 31.5012 20.0062 31.4646 20.1244 31.4533C20.4144 31.4257 20.7168 31.4405 21.0083 31.4297C21.5733 31.4088 22.1334 31.5141 22.6973 31.4953C23.2326 31.4774 23.7635 31.2619 24.2893 31.2619" stroke="#1E1E1E" stroke-width="1.07422" stroke-linecap="round" stroke-dasharray="2.15 2.15"/>
<path d="M24.2896 31.2615C24.8487 31.2615 25.3635 31.4503 25.9235 31.4503C26.5634 31.4503 27.3651 31.493 27.9247 31.1199" stroke="#1E1E1E" stroke-width="1.07422" stroke-linecap="round" stroke-dasharray="2.15 2.15"/>
<path d="M24.5255 31.781C24.3823 31.7989 24.7379 31.8282 24.7431 31.8282C24.9733 31.8282 25.6346 31.7488 25.4329 31.8597C25.1249 32.0291 24.6374 32.0643 24.2894 32.0643C24.155 32.0643 24.5383 31.9613 24.6671 31.9226" stroke="#1E1E1E" stroke-width="1.07422" stroke-linecap="round" stroke-dasharray="2.15 2.15"/>
<path d="M28.0664 31.4033C27.6913 31.4033 27.3163 31.4033 26.9412 31.4033C26.875 31.4033 26.5071 31.5298 26.5557 31.5554C26.6489 31.6048 27.0122 31.6088 26.8599 31.8046C26.7718 31.9179 27.1303 31.9348 27.193 31.9489C27.2717 31.9665 27.6085 32.0643 27.5943 32.0643" stroke="#1E1E1E" stroke-width="1.07422" stroke-linecap="round" stroke-dasharray="2.15 2.15"/>
<path d="M20.5598 38.9098C20.5598 38.5221 20.6234 38.1324 20.6437 37.7453C20.6452 37.7158 20.6954 37.352 20.6437 37.3151C20.5923 37.2784 20.3421 37.5348 20.3237 37.5512C19.9818 37.8551 19.5953 38.2557 19.1907 38.4744C19.0686 38.5404 19.1219 38.1962 19.1487 38.06C19.2262 37.667 19.3763 37.295 19.4661 36.906C19.5296 36.6309 19.1613 37.3812 19.0097 37.6194C18.6287 38.218 18.6588 37.0436 18.6478 36.8535C18.6411 36.7385 18.6871 36.019 18.5507 35.9198C18.5084 35.889 18.3148 36.3182 18.3121 36.3237C18.2063 36.5353 18.1005 36.7469 17.9947 36.9584C17.8946 37.1587 17.9168 36.879 17.916 36.7958C17.9139 36.5616 17.916 36.3272 17.916 36.0929C17.916 35.9949 17.9585 35.7167 17.9055 35.7992C17.8237 35.9266 17.837 36.1859 17.8111 36.329C17.7779 36.5131 17.7423 36.7078 17.68 36.885C17.4275 37.6026 17.3495 33.866 17.3495 34.6268C17.3495 34.7064 17.3495 35.1733 17.3495 35.0648C17.3495 34.6215 17.3495 34.1783 17.3495 33.7351C17.3495 33.6199 17.3393 33.4962 17.3521 33.381C17.3607 33.3039 17.3864 33.2301 17.3941 33.1528C17.412 32.974 17.502 33.2755 17.5279 33.3233C17.6917 33.6255 18.0273 33.8795 18.3095 34.0629C18.6762 34.3013 19.0415 34.5475 19.432 34.7448C20.0089 35.0364 20.5983 35.3166 21.1499 35.6523C21.1722 35.6658 21.4398 35.7987 21.3492 35.8621C21.223 35.9505 20.8126 35.8278 20.7014 35.807C20.2558 35.7237 19.8197 35.6018 19.3795 35.4949C18.9629 35.3938 18.5129 35.3112 18.1127 35.154C17.9529 35.0912 17.8101 35.0017 17.7272 34.8497C17.7103 34.8187 17.662 34.7396 17.6905 34.8445C17.7662 35.1237 17.9639 35.3815 18.1311 35.6103C18.5216 36.1448 18.999 36.6866 19.5526 37.0581C20.0149 37.3683 20.4371 37.592 20.9952 37.6613C21.3178 37.7014 21.7258 37.7345 21.2732 37.4594C20.8802 37.2205 20.3588 37.0277 20.0169 36.7224C20.0023 36.7094 19.8785 36.5519 19.8831 36.5493C20.2292 36.3515 20.8929 36.4126 21.2732 36.384C21.5858 36.3606 21.8989 36.3311 22.2121 36.3158C22.2512 36.3139 22.4723 36.3132 22.2908 36.3132C21.1822 36.3132 20.0737 36.3132 18.9651 36.3132C18.8787 36.3132 18.7743 36.2889 18.7186 36.3709C18.4131 36.8211 18.5298 37.6158 18.5298 38.1308C18.5298 38.3502 18.5541 38.5653 18.2622 38.498C18.004 38.4384 17.7586 38.2634 17.5672 38.0862C17.3901 37.9222 17.3231 37.7502 17.2184 37.5407C17.1888 37.4815 17.2059 37.6428 17.2079 37.6718C17.2217 37.8717 17.4005 38.0442 17.5174 38.1911C17.7474 38.4803 18.1767 38.686 18.5481 38.7183C18.9833 38.7561 17.279 37.3261 17.7272 38.2488C17.824 38.4481 18.0126 38.5712 18.1888 38.6999C18.3499 38.8177 17.5191 38.9679 17.4439 38.8363C17.4084 38.7742 17.3459 38.6739 17.2866 38.6344C17.0749 38.4933 17.7642 38.8104 18.0078 38.8835C18.5659 39.051 19.1369 39.2836 19.71 39.3818C20.4414 39.5072 21.1751 39.6101 21.9184 39.6179C22.5572 39.6246 23.1821 39.7595 23.8225 39.7595C25.0044 39.7595 26.1265 39.152 27.0852 38.5006C27.7763 38.031 28.5167 37.6131 29.1519 37.0686" stroke="#1E1E1E" stroke-width="1.07422" stroke-linecap="round" stroke-dasharray="2.15 2.15"/>
<path d="M16.3115 35.6993C16.6525 35.6993 16.9934 35.6993 17.3344 35.6993C17.563 35.6993 17.808 35.6702 17.5049 35.8462C17.3333 35.9458 17.0154 36.0672 16.9095 36.2501C16.6112 36.7653 18.368 37.5459 18.6143 37.6769C18.8379 37.7958 19.3496 37.9295 19.4378 38.2119C19.5571 38.5935 19.6921 38.8515 19.9808 39.1456C20.0498 39.216 20.8075 39.8874 20.5919 39.4603C20.5369 39.3515 20.1366 38.5511 19.9729 38.566C19.9184 38.5709 19.8112 38.6954 19.7736 38.7234C19.6493 38.8156 19.5237 38.8832 19.3775 38.9332C19.1165 39.0225 18.9004 39.091 18.6248 39.0984C18.338 39.1062 18.5691 39.3345 18.7454 39.3345C19.5194 39.3345 20.973 39.3764 21.342 38.5057C21.5615 37.9876 22.0016 37.9102 22.5432 37.829C23.1697 37.735 23.8021 37.6603 24.4316 37.5877" stroke="#1E1E1E" stroke-width="1.07422" stroke-linecap="round" stroke-dasharray="2.15 2.15"/>
<path d="M20.8906 37.2573C22.5416 37.2573 24.2205 37.3549 25.8686 37.2337C26.0445 37.2208 26.5672 37.1919 26.3931 37.1629C26.2881 37.1454 26.0698 37.1629 25.9997 37.1629C25.0516 37.1629 24.1019 37.179 23.154 37.155C22.3122 37.1337 21.4734 37.0294 20.6545 36.8324C20.6061 36.8208 20.3418 36.797 20.5077 36.7826C21.2242 36.7203 21.9334 36.6094 22.6531 36.5701C23.2066 36.5399 23.7599 36.5667 24.3133 36.5465C24.352 36.5451 24.799 36.4986 24.6752 36.5255C24.1862 36.6319 23.5905 36.5457 23.1042 36.4652C23.0192 36.4512 22.7681 36.4253 22.8524 36.4075C23.2839 36.3167 23.7913 36.3543 24.2267 36.3367C25.4001 36.2894 26.5676 36.2197 27.7307 36.0508C28.2806 35.971 28.9204 35.9178 29.4355 35.6889C29.5049 35.658 29.1639 35.9385 29.105 35.9826" stroke="#1E1E1E" stroke-width="1.07422" stroke-linecap="round" stroke-dasharray="2.15 2.15"/>
<path d="M20.6074 39.3344C21.0208 39.3482 21.4152 39.4962 21.8217 39.56C21.9336 39.5775 22.2317 39.6272 22.1364 39.6885C21.8466 39.8748 21.2161 39.8065 20.8775 39.8065C20.7638 39.8065 20.6502 39.8065 20.5365 39.8065C20.3912 39.8065 20.251 39.7937 20.109 39.7593C19.754 39.6732 20.4705 39.7582 20.5287 39.7698C21.457 39.9555 22.4004 40.3835 23.356 40.4202C24.89 40.4792 26.4762 40.1932 27.9484 39.7829C29.7006 39.2946 31.1484 37.9521 32.4097 36.6907" stroke="#1E1E1E" stroke-width="1.07422" stroke-linecap="round" stroke-dasharray="2.15 2.15"/>
<path d="M21.3149 38.6738C23.4784 38.6738 25.6488 38.7013 27.8089 38.5663C29.1778 38.4807 30.5641 38.3485 31.9109 38.0811C32.1879 38.0261 32.4597 37.9535 32.7397 37.9185" stroke="#1E1E1E" stroke-width="1.07422" stroke-linecap="round" stroke-dasharray="2.15 2.15"/>
<path d="M21.1265 39.9955C22.7085 39.9955 24.3185 40.0821 25.8815 39.7856C26.4889 39.6704 27.0741 39.5588 27.6702 39.3844C27.8534 39.3307 28.3943 39.245 28.4912 39.0513" stroke="#1E1E1E" stroke-width="1.07422" stroke-linecap="round" stroke-dasharray="2.15 2.15"/>
<path d="M24.3364 40.326C25.139 40.326 25.9416 40.326 26.7441 40.326C26.9493 40.326 27.1822 40.354 27.3841 40.305C27.4922 40.2787 27.5811 40.2111 27.6883 40.1843" stroke="#1E1E1E" stroke-width="1.07422" stroke-linecap="round" stroke-dasharray="2.15 2.15"/>
<path d="M21.9766 39.0984C22.7144 39.0984 23.4524 39.104 24.1902 39.0984C24.7701 39.0941 25.3267 38.9254 25.895 38.9096C26.2009 38.9011 25.6768 38.961 25.6117 38.9778C25.1172 39.105 24.6203 39.2249 24.1194 39.324C23.7675 39.3936 23.7252 39.3257 23.8256 38.9804C23.8632 38.8512 24.0328 38.645 24.0328 38.5162C24.0328 38.3959 23.8273 38.6415 23.7207 38.6972C23.7025 38.7067 23.3252 38.9142 23.3404 38.8099C23.38 38.5383 23.7702 38.3003 23.9436 38.1149C24.2413 37.7968 23.1489 38.4723 22.7477 38.6421C22.6815 38.6701 22.5922 38.6744 22.7004 38.5949C22.914 38.4381 23.1848 38.337 23.4269 38.2434C24.1553 37.9621 24.9011 37.7246 25.6432 37.4828C26.2888 37.2725 26.9454 37.0875 27.5866 36.8639C27.8749 36.7633 27.206 36.9254 27.2011 36.9268C26.7715 37.0472 26.3471 37.1805 25.9107 37.2756C25.7207 37.317 25.4781 37.4078 25.2812 37.3989C25.0555 37.3886 25.6427 37.1243 25.8425 37.0186C26.178 36.8411 26.5308 36.6524 26.9021 36.5596C26.9292 36.5528 26.5584 36.6478 26.4903 36.6698C26.2132 36.7593 25.9537 36.9019 25.6694 36.9688C25.6334 36.9772 25.3342 37.0442 25.4701 36.932C25.7182 36.7273 26.0435 36.6128 26.3251 36.4626C26.3431 36.453 26.6173 36.2854 26.5611 36.2869C26.2471 36.2947 25.9127 36.455 25.6169 36.5491C25.5927 36.5568 25.181 36.6563 25.2052 36.6121C25.2765 36.4814 25.5477 36.3907 25.6746 36.3341C25.8267 36.2663 25.9999 36.1953 26.1625 36.1583C26.3358 36.1189 25.9317 36.5832 25.9317 36.5832C25.5739 36.9984 25.2025 37.4225 24.9245 37.8972C24.6076 38.4384 25.1052 38.3638 25.4858 38.2565C25.9323 38.1307 26.3501 37.9251 26.7919 37.7871C27.2041 37.6583 26.5912 37.9909 26.5428 38.0205C26.1798 38.2427 25.8123 38.457 25.4491 38.6788C25.401 38.7081 25.0551 38.9453 25.2576 38.705C25.5453 38.3638 25.9129 38.0471 26.2936 37.8133C26.3799 37.7603 26.7866 37.495 26.6346 37.7766C26.3221 38.3552 25.9013 38.8684 25.575 39.4394C25.5041 39.5634 25.4793 39.6919 25.6432 39.7227C26.1439 39.8166 26.7263 39.7758 27.1696 39.5181C27.8144 39.1433 28.3916 38.6563 28.8167 38.0415C28.9484 37.8511 29.1472 37.5908 29.1472 37.3412C29.1472 37.1849 28.2687 37.2792 28.203 37.2887C27.5718 37.3801 26.8683 37.7127 26.4667 38.2224C26.3018 38.4318 26.1386 38.6821 26.0392 38.9306C25.912 39.2486 26.2529 39.1799 26.5034 39.2034C26.6002 39.2124 26.8426 39.207 26.8942 39.3161C26.9619 39.459 26.5829 39.6995 26.5034 39.7646C26.1986 40.0143 25.7791 40.1637 25.5015 40.4413C25.4994 40.4434 25.4331 40.5256 25.4543 40.4937C25.6017 40.2726 25.988 40.1133 26.1966 39.9849C27.3559 39.2715 28.6305 38.465 29.0737 37.0999C29.0873 37.0581 29.2283 36.6529 29.1708 36.6068C29.1244 36.5697 28.7403 37.0278 28.7275 37.0422C28.5183 37.2784 28.3283 37.5303 28.1217 37.7687C28.0131 37.894 27.985 37.9171 28.0823 37.7294C28.747 36.4476 29.7023 35.3193 30.4638 34.0942C30.6068 33.8642 30.43 34.0451 30.3431 34.1257C29.8764 34.5591 29.3708 34.9423 28.8875 35.3558C28.6268 35.5789 28.3773 35.8135 28.1348 36.056C28.046 36.1448 28.3039 35.8703 28.3918 35.7807C29.0266 35.1339 29.7644 34.5464 30.4612 33.9657C30.4925 33.9396 30.5867 33.8671 30.5477 33.8792C30.1751 33.9948 29.7995 34.3442 29.4776 34.5532C29.0606 34.8241 28.6557 35.0946 28.2712 35.4108C28.1241 35.5318 27.6844 35.7905 27.8725 35.82C28.0213 35.8433 28.1714 35.7797 28.3184 35.7466C28.9558 35.6028 29.5893 35.4408 30.2251 35.2902C30.3514 35.2603 31.4914 34.863 31.6388 35.0227C31.6979 35.0867 29.6161 37.2062 29.4357 37.4776C29.3975 37.535 29.005 38.1658 29.1734 38.1097C29.7492 37.9177 30.2946 37.5292 30.8205 37.231C30.9922 37.1337 31.5059 36.8394 31.3345 36.9373C30.9446 37.1601 30.6055 37.6377 30.2828 37.9444C29.989 38.2237 29.6914 38.4982 29.3937 38.7732C29.2182 38.9354 29.2007 38.9673 29.4357 38.8519C29.713 38.7157 29.9988 38.5718 30.2907 38.469C30.5149 38.39 30.0863 38.7121 30.0546 38.7313C29.8952 38.8275 29.6963 38.9066 29.5668 39.046C29.5096 39.1076 30.154 38.916 30.2015 38.8991C30.5388 38.7792 30.8806 38.6042 31.2349 38.5398C31.5064 38.4904 31.0925 38.6722 31.0644 38.6867C30.77 38.8383 30.4817 38.9989 30.1963 39.1666C30.0326 39.2628 29.8123 39.4373 29.6193 39.463C29.5168 39.4767 29.7466 39.2971 29.8291 39.2348C30.1133 39.0203 30.4018 38.8156 30.7051 38.629C30.9659 38.4685 31.761 38.0275 31.4683 38.1175C31.3153 38.1646 29.5438 39.2098 29.5144 39.1509C29.4234 38.9689 30.3728 38.0484 30.4244 37.989C31.2317 37.0595 31.9967 36.1086 32.6617 35.0699C33.0389 34.4805 33.3897 33.8604 33.577 33.1815C33.6665 32.8571 33.4584 33.0929 33.3331 33.2077C32.8001 33.696 32.238 34.1539 31.7175 34.6555C31.3535 35.0062 31.0318 35.4014 30.6579 35.7413C30.6254 35.7709 30.4511 35.944 30.5162 35.7833C30.6853 35.3663 30.9139 34.9728 31.1011 34.5637C31.1072 34.5505 31.2969 34.2022 31.1405 34.3355C30.8024 34.6235 30.53 35.0108 30.2566 35.3558C29.9385 35.7571 29.6304 36.1633 29.3413 36.5858C29.2028 36.7882 29.6084 36.1745 29.7504 35.9747C30.1662 35.3899 30.5783 34.8074 30.9516 34.1939C31.1492 33.8693 31.3862 33.5276 31.5076 33.1631C31.5419 33.0603 31.545 33.0872 31.5024 33.171C31.3524 33.4658 31.1367 33.9858 30.8362 34.1467C30.3684 34.3971 30.3726 32.6533 30.1805 32.5573C30.1015 32.5178 30.1353 33.4802 29.6219 32.9192C29.4667 32.7497 29.3676 32.4994 29.1996 32.3475C29.136 32.2899 29.0678 32.5759 29.058 32.6019C29.0088 32.7318 28.9465 33.0064 28.8219 32.8196" stroke="#1E1E1E" stroke-width="1.07422" stroke-linecap="round" stroke-dasharray="2.15 2.15"/>
<path d="M23.2036 31.8753C24.2522 31.8753 25.331 31.7922 26.3614 32.0274C26.6168 32.0857 27.3728 32.2116 27.1141 32.253C26.5572 32.3421 25.9791 32.3453 25.4172 32.3474C24.9854 32.349 24.5534 32.3474 24.1216 32.3474C23.8576 32.3474 24.6496 32.3465 24.9136 32.3474C26.0592 32.3514 27.1672 32.5361 28.3022 32.6307" stroke="#1E1E1E" stroke-width="1.07422" stroke-linecap="round" stroke-dasharray="2.15 2.15"/>
<path d="M29.9077 36.5965C30.109 36.4154 30.2917 36.2321 30.4637 36.0195C30.687 35.7436 30.8201 35.4282 31.0198 35.1488C31.1287 34.9962 30.9035 35.5052 30.8388 35.6812C30.7175 36.0112 30.5898 36.3385 30.4585 36.6647C30.439 36.7131 30.18 37.2518 30.2224 37.2942C30.3235 37.3952 31.2651 36.6502 31.3345 36.6018C31.7979 36.2785 32.2603 35.8455 32.7613 35.5841C33.036 35.4408 32.4012 36.089 32.2052 36.329C32.125 36.4273 31.8748 36.744 32.1423 36.4601C32.6478 35.9236 33.1723 35.4059 33.7055 34.897C33.8094 34.7977 33.915 34.6585 34.0307 34.5717C34.1488 34.4832 33.9228 34.8471 33.855 34.9783C33.592 35.4867 33.3386 35.9992 33.1075 36.5231C33.0017 36.7629 33.41 36.367 33.4432 36.3395C33.6398 36.1766 34.2025 35.6653 34.0464 35.8674C33.7461 36.256 33.3979 36.6063 33.097 36.9952C33.0156 37.1004 32.9442 37.2123 32.8636 37.3178C32.8484 37.3376 32.7945 37.383 32.819 37.3781C32.8692 37.3681 32.9649 37.2748 32.9921 37.2548C33.4139 36.9444 33.8534 36.659 34.2746 36.3474C34.8078 35.9528 35.2967 35.5245 35.7171 35.0097C35.7215 35.0043 36.0391 34.598 35.8614 34.7448C35.1577 35.3261 34.4983 35.9517 33.8733 36.6175C33.7054 36.7964 33.5236 36.9673 33.3278 37.1158C33.2111 37.2043 33.0514 37.2872 32.979 37.4201C32.9309 37.5082 32.9709 37.4469 33.0262 37.4069C33.4935 37.0685 33.9642 36.7525 34.4084 36.3814C34.589 36.2306 34.8211 35.9417 35.0326 35.8359C35.1931 35.7556 34.7905 36.101 34.6706 36.2346C34.554 36.3645 34.4299 36.497 34.3349 36.6437C34.0303 37.1145 34.8675 35.6564 35.1506 35.1724C35.6163 34.3762 36.0729 33.5715 36.4541 32.7306C36.5508 32.5172 36.6657 32.2943 36.7269 32.067C36.7371 32.0291 36.7976 31.8413 36.7033 31.928C36.1213 32.4635 35.6348 33.1042 35.1322 33.7115C34.9061 33.9848 34.6808 34.2569 34.4608 34.535C34.4489 34.5501 34.4135 34.5944 34.4215 34.577C34.4703 34.4697 34.512 34.3593 34.5605 34.2518C34.7796 33.7658 35.0722 33.2755 35.1742 32.7463C35.1905 32.6616 35.2541 32.3737 35.0903 32.5103C34.7916 32.7591 34.53 33.0783 34.2562 33.3548C34.1909 33.4208 33.9112 33.8217 33.7894 33.7797C33.7849 33.7781 33.4457 32.8126 33.3304 33.0689C33.2576 33.2307 33.1169 34.0761 32.8347 33.9606C32.5779 33.8556 32.5215 32.8694 32.2262 33.2341C31.998 33.516 31.8088 33.8099 31.5443 34.0629C31.2542 34.3405 31.2573 34.0034 31.2401 33.743C31.2318 33.6175 31.3335 32.5405 31.088 32.9614C30.9463 33.2042 30.8991 33.1607 30.8991 32.9011C30.8991 32.7085 30.8348 33.4954 31.025 33.4649C31.1642 33.4427 31.3147 33.2421 31.3922 33.1555C31.6465 32.8711 31.8877 32.5712 32.0872 32.2454C32.1715 32.1076 32.3102 31.6537 32.3102 31.8152C32.3102 31.9898 32.2682 32.1693 32.2682 32.3477C32.2682 32.4952 32.1786 32.8996 32.4203 32.7043C32.8131 32.3871 33.0286 31.9558 33.3225 31.5608C33.3484 31.5261 33.2703 32.1076 33.2596 32.1693C33.2038 32.4924 33.1091 32.8284 33.0812 33.1555C33.0764 33.213 33.1862 33.1004 33.2229 33.0558C33.4888 32.7325 33.7334 32.3927 33.9861 32.0591C34.1548 31.8365 34.2231 31.8254 34.1749 32.109C34.1231 32.4145 34.0622 32.7133 34.0622 33.0243C34.0622 33.2391 34.1022 33.1601 34.2143 33.0165C34.357 32.8336 34.4708 32.5999 34.6287 32.4421" stroke="#1E1E1E" stroke-width="1.07422" stroke-linecap="round" stroke-dasharray="2.15 2.15"/>
<path d="M35.2419 33.9054C35.2309 34.0042 35.1219 34.1038 35.0688 34.1782C34.9504 34.344 34.8024 34.6812 34.6124 34.7762C34.4701 34.8473 34.6111 33.6595 34.5259 33.6169C34.4289 33.5684 33.9363 34.4079 33.7889 34.4693C33.7501 34.4854 33.7285 33.4504 33.7417 33.5015C33.8765 34.0238 34.5715 33.133 34.7278 32.9717C34.9152 32.7784 35.0745 32.5945 35.2471 32.3895C35.3311 32.2898 35.4881 32.0224 35.6222 31.9593C35.643 31.9495 35.5366 32.5124 35.5225 32.5626C35.4803 32.7131 35.3293 33.156 35.394 33.0137C35.5833 32.5972 35.6934 32.126 35.8346 31.6918C35.9011 31.4875 36.0447 31.044 35.9422 31.5502C35.8499 32.0055 35.7184 32.4516 35.6248 32.9061C35.6233 32.9133 35.5596 33.3465 35.5671 33.3441C35.8476 33.2578 36.1713 32.7472 36.367 32.5468C36.4211 32.4914 36.9558 32.0047 36.9467 32.0433C36.8483 32.4596 36.4612 32.8629 36.2333 33.2078C35.8992 33.7132 35.607 34.2401 35.3363 34.7814C35.1505 35.153 34.8141 35.5031 34.5652 35.8541C34.3341 36.18 34.2457 36.4353 34.0984 36.7852C34.0817 36.8248 33.9872 37.0632 33.9462 37.0632C33.9321 37.0632 33.9538 37.0354 33.962 37.0239C34.0822 36.8556 34.2222 36.6959 34.3554 36.5387C34.8141 35.9974 35.3087 35.4815 35.7402 34.9178C36.1873 34.3337 37.2582 32.3987 36.9073 33.0451C36.7584 33.3195 36.6031 33.5887 36.4641 33.8687C36.4128 33.972 36.2592 34.207 36.2884 34.3382C36.2909 34.3496 36.5818 33.9903 36.6005 33.9631C36.8724 33.5667 37.1077 33.1477 37.3453 32.7304C37.3917 32.649 37.434 32.5616 37.3794 32.7252C37.2981 32.9691 37.1719 33.1918 37.0726 33.4281C36.9977 33.6061 36.6883 34.4679 36.9729 33.8162C37.3952 32.8494 37.8148 31.8749 38.2528 30.9155C38.2835 30.8482 38.4342 30.5467 38.4285 30.5535C38.3148 30.69 38.4049 30.1988 38.4049 30.0211C38.4049 29.7802 38.3651 30.5243 38.2266 30.7214C38.0796 30.9306 37.8515 30.5464 37.7755 30.4434C37.5557 30.1454 37.59 30.3165 37.5289 30.5955C37.4699 30.8654 37.3024 30.6128 37.3217 30.884C37.3289 30.9845 37.403 31.3597 37.5184 31.1673C37.5546 31.1069 37.5257 31.2328 37.5027 31.2591C37.4026 31.3734 37.1967 31.3717 37.0595 31.3482C36.952 31.3298 36.5668 31.0667 36.5165 31.1673" stroke="#1E1E1E" stroke-width="1.07422" stroke-linecap="round" stroke-dasharray="2.15 2.15"/>
<path d="M37.3192 32.2061C37.6753 31.7788 37.8988 31.2011 38.1821 30.7216C38.4996 30.1843 37.7177 31.8801 37.4818 32.4579C37.3655 32.7428 37.7184 32.1843 37.7625 32.1169C37.7757 32.0966 37.9277 31.8447 37.9277 31.9805C37.9277 32.028 37.8795 32.2486 37.8936 32.2087C37.9552 32.0341 38.0453 31.8779 38.1375 31.7183C38.2004 31.6095 38 31.9289 37.9224 32.0277C36.9895 33.2158 35.9626 34.3428 34.985 35.495C34.8851 35.6128 34.5483 36.1067 34.324 36.017C34.0412 35.9038 34.235 34.8551 33.9726 34.8551C33.7001 34.8551 33.4647 34.9115 33.191 34.8341C32.5747 34.6597 32.0242 34.265 31.5859 33.806C31.4072 33.6188 31.0876 33.3658 31.0876 33.0795C31.0876 32.8822 30.9514 32.7744 30.841 32.6205C30.7342 32.4714 30.4004 32.0949 30.4004 31.8966C30.4004 31.8526 30.56 31.9431 30.5709 31.9491C30.6885 32.0138 30.7891 32.057 30.9197 32.0881C30.9681 32.0996 31.0489 32.1364 31.0876 32.0881C31.1394 32.0232 31.3901 32.2211 31.439 32.2507C31.5475 32.3164 31.6919 32.4172 31.8219 32.4317C31.9583 32.4468 31.8535 31.8653 31.8429 31.7969C31.8048 31.5517 31.8023 31.5287 32.0842 31.5661C32.3787 31.6053 32.7143 31.7589 33.0127 31.734C33.2675 31.7128 32.9467 30.8657 33.0651 30.8842C33.4587 30.9457 33.8611 31.2175 34.2191 31.3825C34.2295 31.3873 34.7058 31.6251 34.665 31.4875C34.63 31.3692 34.3372 31.0705 34.6309 31.1308C34.8286 31.1713 35.2261 31.3963 35.4203 31.2776C35.527 31.2124 35.4774 31.0152 35.5305 30.9157C35.6313 30.7266 36.0553 30.8842 36.2124 30.8842C36.3184 30.8842 36.2431 30.8133 36.3016 30.7636C36.3946 30.6845 36.6929 30.7442 36.8052 30.7426C37.1131 30.7381 36.8996 30.5701 36.8996 30.3911C36.8996 30.3724 37.5244 30.6186 37.6156 30.5485C37.7811 30.4212 37.5171 30.3102 37.8175 30.3544C38.0194 30.3841 38.0094 29.5833 38.03 29.4496C38.0455 29.349 38.307 29.8781 38.4627 29.641C38.5542 29.5017 38.7355 28.8064 38.7355 29.2634C38.7355 29.4161 38.6784 29.7564 38.8063 29.7564C38.8501 29.7564 38.8246 30.2551 38.843 30.2312C38.9156 30.1369 39.3091 29.5847 39.1132 29.9663C39.0142 30.1591 38.8891 30.4002 38.7355 30.5538" stroke="#1E1E1E" stroke-width="1.07422" stroke-linecap="round" stroke-dasharray="2.15 2.15"/>
<path d="M9.51302 19.601C9.51302 19.2614 9.5365 18.9222 9.62842 18.5939C9.71657 18.2791 9.52968 18.7057 9.50253 18.7932C9.46683 18.9082 9.33624 19.3711 9.34516 19.3571C9.53101 19.0667 9.74031 18.7927 9.92217 18.4995C10.0435 18.3039 10.3051 17.695 10.3051 17.9251C10.3051 18.0178 10.055 18.8036 10.1949 18.4732C10.2942 18.2389 10.4049 18.0098 10.5044 17.7756C10.5274 17.7216 10.7639 17.0571 10.7064 17.4661C10.6821 17.6386 10.3273 18.8561 10.5516 18.9558C10.6658 19.0066 10.9264 18.267 10.7667 19.0293C10.7346 19.1824 10.5034 19.9324 10.8559 19.5564C10.963 19.4422 10.9705 19.4085 10.9765 19.5643C10.9811 19.6845 11.0647 19.697 10.9031 19.7663C10.634 19.8816 10.3428 19.6128 10.153 19.441C10.0192 19.32 10.0525 19.3081 10.0218 19.1342C10.0144 19.092 9.93791 18.72 9.93791 18.8981C9.93791 19.6599 11.3542 19.3149 11.3542 19.7427" stroke="#1E1E1E" stroke-width="1.07422" stroke-linecap="round" stroke-dasharray="2.15 2.15"/>
<path d="M36.6113 19.6479C36.7086 19.5939 37.3577 18.9903 37.2618 18.9136C37.2345 18.8918 36.9721 19.6041 36.9418 19.6952" stroke="#1E1E1E" stroke-width="1.07422" stroke-linecap="round" stroke-dasharray="2.15 2.15"/>
<path d="M37.7442 19.1763C37.7442 19.0852 37.709 18.5788 37.7652 18.8038C37.7786 18.8575 38.1196 19.5671 38.1586 19.3966C38.1964 19.232 38.1691 19.0343 38.1691 18.8668C38.1691 18.7478 38.1136 18.4111 38.1796 18.5101C38.2088 18.5538 38.5629 19.2404 38.6307 19.1658C38.6889 19.1018 38.5715 18.842 38.5468 18.7802C38.5048 18.6752 38.3188 18.4271 38.4262 18.4629C38.5275 18.4967 38.7309 18.8516 38.8012 18.9323C38.8694 19.0107 39.0536 19.1517 39.0661 19.2707C39.1128 19.7141 38.1152 19.607 37.8964 19.8477C37.8206 19.931 37.9495 20.09 37.8282 20.1677C37.5502 20.3456 37.7429 19.6245 37.7915 19.5434C38.0597 19.0963 38.1219 18.7304 38.1219 18.2163C38.1219 18.0843 38.1219 17.9523 38.1219 17.8203C38.1219 17.7502 38.1992 17.9491 38.2163 17.975C38.2329 18.0001 38.3294 18.1557 38.379 18.1062C38.3892 18.0959 38.4176 17.9822 38.4419 18.0065C38.6715 18.2361 38.7872 18.6801 38.9402 18.9612C39.0401 19.1447 39.2942 19.5895 39.1605 19.79" stroke="#1E1E1E" stroke-width="1.07422" stroke-linecap="round" stroke-dasharray="2.15 2.15"/>
<path d="M21.5513 9.3093C21.9075 9.3093 22.2081 9.55876 22.4535 9.78926C22.8153 10.1291 23.1887 9.59983 23.5026 9.37749C23.6555 9.26917 23.6116 9.80024 23.6967 9.87319C23.7674 9.93379 23.5795 9.92157 23.5577 9.91778C23.2854 9.87042 23.0026 9.40943 22.8286 9.2175C22.8038 9.19022 22.6882 8.99458 22.6843 9.12046C22.6802 9.25007 22.6777 9.3854 22.6948 9.51387C22.718 9.68805 22.7868 9.81634 22.8889 9.95974C23.017 10.1397 23.2737 10.6195 23.5341 10.6469C23.8861 10.684 23.8777 10.05 24.2107 10.2037C24.3677 10.2761 25.1752 10.0135 25.1838 10.0437C25.2093 10.133 25.4004 9.87342 25.5431 9.93351C25.5705 9.94505 25.5578 10.0061 25.5693 9.98597C25.6058 9.92214 25.6691 9.84762 25.7319 9.80762C25.883 9.71148 25.9905 9.62187 25.7057 9.54534C25.3495 9.44966 25.3228 9.42284 25.6585 9.22537C25.973 9.04039 24.9653 9.46752 24.6042 9.51912C24.4658 9.53889 24.2747 9.54534 24.1268 9.54534C24.0603 9.54534 23.8701 9.56859 23.9275 9.53485C24.0453 9.46554 24.369 9.46287 24.473 9.45355C24.8498 9.41981 25.2279 9.4055 25.606 9.40372C26.015 9.40179 26.1709 9.56577 26.5345 9.68697C26.5988 9.7084 26.7795 9.78461 26.8387 9.71058C26.863 9.68025 26.8975 9.68697 26.9332 9.68697C27.129 9.68697 26.5415 9.68697 26.3457 9.68697C26.1033 9.68697 25.8447 9.71274 25.6034 9.68435C25.5223 9.6748 25.6263 9.60621 25.5982 9.70009C25.4949 10.0442 25.1494 10.3155 25.0894 10.6758C25.0665 10.8127 24.7975 10.8993 24.6986 10.9616C24.5716 11.0416 24.5727 11.2045 24.5727 11.3393C24.5727 11.5213 24.4837 11.5989 24.2947 11.6199C24.0916 11.6425 24.3154 11.3959 24.355 11.3446C24.5614 11.0771 24.7741 10.8074 25.0133 10.5682C25.1643 10.4172 24.6027 10.6092 24.5255 10.6207C24.3025 10.6537 24.292 10.4298 24.3602 10.7439C24.4334 11.0804 24.2785 11.0986 23.9537 11.1033C23.5821 11.1086 23.7452 11.1833 23.8908 11.46C23.9218 11.5189 24.0177 11.8312 24.1111 11.7301C24.4505 11.3624 24.8453 11.0294 25.2179 10.6967C25.5271 10.4207 25.8359 10.1125 26.246 9.99908C26.6514 9.88695 26.9851 9.81521 27.3371 9.55584C27.5145 9.42507 27.5401 9.49644 27.7357 9.54534" stroke="#1E1E1E" stroke-width="1.07422" stroke-linecap="round" stroke-dasharray="2.15 2.15"/>
<path d="M9.8144 19.4169C9.8144 18.8645 9.75333 19.5731 9.74153 19.7856C9.72381 20.1045 9.70005 20.2657 10.0459 20.2657" stroke="#1E1E1E" stroke-width="1.07422" stroke-linecap="round" stroke-dasharray="2.15 2.15"/>
<path d="M11.2031 20.0342H11.2801" stroke="#1E1E1E" stroke-width="1.07422" stroke-linecap="round" stroke-dasharray="2.15 2.15"/>
<path d="M38.7479 30.8359C38.6699 31.7715 38.1842 32.5931 37.6677 33.3392C37.123 34.1259 36.2481 34.5701 35.5845 35.2338" stroke="#1E1E1E" stroke-width="1.07422" stroke-linecap="round" stroke-dasharray="2.15 2.15"/>
<path d="M38.3619 30.5273C38.3619 30.029 38.3006 29.4827 38.6105 29.0613C38.7548 28.8651 38.8348 28.9977 38.842 28.9842C38.9203 28.8363 39.0274 28.704 39.0949 28.5555C39.1032 28.5372 39.1569 28.3327 39.1934 28.4012C39.2144 28.4406 39.1929 28.6002 39.2234 28.5341C39.3463 28.2679 39.5122 28.0217 39.6564 27.7668C39.6877 27.7114 39.9219 27.3906 39.7464 27.5954C39.4149 27.9821 38.9874 28.3079 38.5976 28.6327C38.3451 28.8431 38.057 29.1887 37.7446 29.2928" stroke="#1E1E1E" stroke-width="1.07422" stroke-linecap="round" stroke-dasharray="2.15 2.15"/>
<path d="M38.208 29.6014C38.2243 29.5197 38.5028 29.1827 38.5166 29.2927C38.5538 29.5905 38.9694 29.1277 39.0567 29.0613C39.151 28.9895 39.6136 28.4671 39.5968 28.7526C39.5861 28.9334 38.994 29.2458 38.8509 29.3399C38.6374 29.4802 36.8459 30.7052 36.7463 30.2572C36.6985 30.0422 37.6895 29.4398 37.8993 29.3699" stroke="#1E1E1E" stroke-width="1.07422" stroke-linecap="round" stroke-dasharray="2.15 2.15"/>
<path d="M28.7271 31.5169C28.7271 30.9249 29.2851 32.194 29.5227 31.719C29.558 31.6484 29.6022 31.4853 29.7058 31.4853C29.7798 31.4853 29.8485 31.595 29.9205 31.5611C29.9826 31.5319 29.972 31.4451 30.0341 31.4159C30.0816 31.3935 30.1899 31.4567 30.2457 31.4632C30.4955 31.4926 31.7861 31.9726 31.9064 31.4316C31.9475 31.2467 31.9085 31.2671 32.1937 31.318C32.4211 31.3586 32.7402 31.2751 32.9325 31.4032" stroke="#1E1E1E" stroke-width="1.07422" stroke-linecap="round" stroke-dasharray="2.15 2.15"/>
<path d="M35.8379 19.9873C35.8553 19.8482 36.1806 19.912 36.2894 19.912C36.5693 19.912 36.5977 19.799 36.7408 19.5525C37.0561 19.0095 37.4223 18.5323 37.7483 18.0058C37.7799 17.9548 37.9629 17.7847 37.9113 17.7299C37.8089 17.621 37.6714 17.5768 37.7232 17.3954C37.7877 17.1698 37.7919 17.511 37.7943 17.5627C37.8044 17.7857 37.9516 17.9762 38.02 18.1813" stroke="#1E1E1E" stroke-width="1.07422" stroke-linecap="round" stroke-dasharray="2.15 2.15"/>
</svg>
