<svg width="48" height="48" viewBox="0 0 48 48" fill="none" xmlns="http://www.w3.org/2000/svg">
<path fill-rule="evenodd" clip-rule="evenodd" d="M8 20C8 28.8366 23.2919 43.3108 23.2919 43.3108C23.683 43.6914 24.3342 43.6777 24.7291 43.2901C24.7291 43.2901 40 28.8366 40 20C40 11.1634 32.8366 4 24 4C15.1634 4 8 11.1634 8 20ZM29.255 32.4426C27.6615 34.412 25.9448 36.3348 24.2279 38.1253L24.0004 38.3618L23.7896 38.1426C22.0702 36.3496 20.351 34.4243 18.7551 32.4525C17.0045 30.2897 15.5152 28.2075 14.3727 26.2786C12.8073 23.6357 12 21.4405 12 20C12 13.3726 17.3726 8 24 8C30.6274 8 36 13.3726 36 20C36 21.4386 35.1966 23.6278 33.6383 26.2628C32.4966 28.1934 31.0069 30.2777 29.255 32.4426ZM24 24C26.2091 24 28 22.2091 28 20C28 17.7909 26.2091 16 24 16C21.7909 16 20 17.7909 20 20C20 22.2091 21.7909 24 24 24ZM24 28C19.5817 28 16 24.4183 16 20C16 15.5817 19.5817 12 24 12C28.4183 12 32 15.5817 32 20C32 24.4183 28.4183 28 24 28Z" fill="white"/>
</svg>
