<svg width="55" height="45" viewBox="0 0 55 45" fill="none" xmlns="http://www.w3.org/2000/svg">
<path d="M41.5123 12.0953C42.2319 11.4025 43.1095 10.8955 44.0692 10.6182C45.0288 10.3409 46.0416 10.3017 47.0198 10.504C47.998 10.7063 48.9122 11.144 49.6832 11.7792C50.4541 12.4144 51.0586 13.2279 51.4443 14.1493C51.8301 15.0708 51.9854 16.0724 51.8968 17.0673C51.8082 18.0623 51.4785 19.0207 50.9361 19.8596C50.3937 20.6984 49.655 21.3924 48.784 21.8814C47.913 22.3705 46.9359 22.6398 45.9373 22.6662H2.9165M21.5998 4.47452C22.1694 3.89362 22.8742 3.46313 23.651 3.22163C24.4279 2.98013 25.2525 2.93517 26.051 3.09078C26.8495 3.24639 27.5969 3.59771 28.2263 4.11324C28.8556 4.62877 29.3471 5.2924 29.6569 6.04465C29.9666 6.79689 30.0849 7.61425 30.001 8.42344C29.9172 9.23263 29.6339 10.0084 29.1765 10.6811C28.719 11.3539 28.1018 11.9026 27.3802 12.2781C26.6585 12.6537 25.8549 12.8443 25.0415 12.8328H2.9165M28.9748 40.8578C29.5444 41.4387 30.2492 41.8692 31.026 42.1107C31.8029 42.3522 32.6275 42.3972 33.426 42.2416C34.2245 42.086 34.9719 41.7347 35.6013 41.2191C36.2306 40.7036 36.7222 40.04 37.0319 39.2877C37.3416 38.5355 37.4599 37.7181 37.376 36.9089C37.2922 36.0997 37.0089 35.324 36.5515 34.6512C36.094 33.9785 35.4768 33.4298 34.7552 33.0542C34.0335 32.6787 33.2299 32.4881 32.4165 32.4995H2.9165" stroke="white" stroke-width="4.91667" stroke-linecap="round" stroke-linejoin="round"/>
</svg>
