<svg width="66" height="66" viewBox="0 0 66 66" fill="none" xmlns="http://www.w3.org/2000/svg">
<path d="M42.25 19.1006H58.875V23.8344H42.25V19.1006ZM42.25 33.3019H66V38.0356H42.25V33.3019ZM42.25 47.5031H58.875V52.2368H42.25V47.5031ZM18.5 43.2049V12H13.75V43.2049C12.1654 43.7632 10.8298 44.8618 9.97939 46.3066C9.12896 47.7514 8.81841 49.4492 9.10263 51.1001C9.38684 52.751 10.2475 54.2486 11.5326 55.3282C12.8176 56.4079 14.4443 57 16.125 57C17.8058 57 19.4324 56.4079 20.7175 55.3282C22.0025 54.2486 22.8632 52.751 23.1474 51.1001C23.4316 49.4492 23.1211 47.7514 22.2706 46.3066C21.4202 44.8618 20.0846 43.7632 18.5 43.2049Z" fill="white"/>
<path d="M66 4.71142H25.8673C24.3883 2.73367 22.3233 1.27237 19.9659 0.5353C17.6084 -0.201773 15.0785 -0.177104 12.7359 0.605799C10.3933 1.3887 8.35716 2.88999 6.91706 4.8962C5.47696 6.90241 4.70617 9.31143 4.71429 11.7807V37.9608C2.44043 40.2808 0.902339 43.2204 0.292888 46.4108C-0.316563 49.6012 0.0297533 52.9005 1.28841 55.895C2.54707 58.8894 4.66204 61.4458 7.36813 63.2434C10.0742 65.0411 13.251 66 16.5 66C19.7491 66 22.9258 65.0411 25.6319 63.2434C28.338 61.4458 30.4529 58.8894 31.7116 55.895C32.9703 52.9005 33.3166 49.6012 32.7071 46.4108C32.0977 43.2204 30.5596 40.2808 28.2857 37.9608V11.7807C28.2857 10.9893 28.206 10.1998 28.0476 9.42429H66V4.71142ZM16.5 61.266C14.114 61.2694 11.7832 60.5477 9.81684 59.1966C7.85045 57.8456 6.34129 55.9289 5.48944 53.7008C4.6376 51.4726 4.48332 49.0383 5.04705 46.7205C5.61079 44.4027 6.86591 42.3109 8.64601 40.7225L9.42858 40.0179V11.7807C9.42858 9.90583 10.1736 8.10773 11.4998 6.78197C12.8259 5.45622 14.6245 4.71142 16.5 4.71142C18.3755 4.71142 20.1741 5.45622 21.5003 6.78197C22.8264 8.10773 23.5714 9.90583 23.5714 11.7807V40.0179L24.354 40.7225C26.1341 42.3109 27.3892 44.4027 27.953 46.7205C28.5167 49.0383 28.3624 51.4726 27.5106 53.7008C26.6587 55.9289 25.1496 57.8456 23.1832 59.1966C21.2168 60.5477 18.886 61.2694 16.5 61.266Z" fill="white"/>
</svg>
