<svg width="44" height="61" viewBox="0 0 44 61" fill="none" xmlns="http://www.w3.org/2000/svg">
<path d="M40.2747 26.8223L24.0704 1.06512C23.8353 0.73574 23.5248 0.46722 23.1646 0.281943C22.8045 0.0966667 22.4052 0 22 0C21.5948 0 21.1955 0.0966667 20.8354 0.281943C20.4752 0.46722 20.1647 0.73574 19.9296 1.06512L3.652 26.9467C1.3925 30.5878 0.13297 34.7585 0 39.0396C0 44.8638 2.31785 50.4496 6.44365 54.5679C10.5695 58.6863 16.1652 61 22 61C27.8348 61 33.4305 58.6863 37.5563 54.5679C41.6821 50.4496 44 44.8638 44 39.0396C43.8598 34.7104 42.5746 30.4953 40.2747 26.8223ZM22 56.1199C17.4638 56.1134 13.1153 54.3118 9.90776 51.1101C6.7002 47.9083 4.89536 43.5676 4.88889 39.0396C5.02132 35.6278 6.04792 32.3104 7.86622 29.4185L10.1518 25.7828L34.7771 50.3638C33.1774 52.1722 31.2111 53.6208 29.0084 54.6135C26.8057 55.6062 24.4168 56.1181 22 56.1199Z" fill="white"/>
</svg>
